# xmcd
#
# Track frame offsets: 
#        150
#        18748
#        34410
#        47754
#        63301
#        79191
#        92316
#        116971
#        129202
#        142853
#
# Disc length: 2078 seconds
#
# Revision: 0
# Processed by: cddbd v1.5.1PL2 Copyright (c) Steve Scherf et al.
# Submitted via: ExactAudioCopy v0.95b4
#
DISCID=80081c0a
DTITLE=Blind Boys of Mississippi - All You Got to Do
DYEAR=1900
DGENRE=Gospel
TTITLE0=Peace Among Nations
TTITLE1=He's My Friend
TTITLE2=Whisper A Prayer
TTITLE3=Mother Told Me About Jesus
TTITLE4=I Can't Even Walk
TTITLE5=Thank The Lord I'm Singing Again
TTITLE6=He's My Friend
TTITLE7=I'm Just Another Soldier
TTITLE8=Save the Seat For Me
TTITLE9=Walk Together Children
EXTD=
EXTT0=
EXTT1=
EXTT2=
EXTT3=
EXTT4=
EXTT5=
EXTT6=
EXTT7=
EXTT8=
EXTT9=
PLAYORDER=
